STARTFONT 2.1
FONT -Fondu-Geneva-Medium-R-Normal--9-90-75-75-P-54-MacRoman-1
SIZE 9 75 75
FONTBOUNDINGBOX 11 12 -2 -2
COMMENT Created by Fondu from a mac NFNT/FONT resource
STARTPROPERTIES 17
FOUNDRY "Fondu"
FAMILY_NAME "Geneva"
WEIGHT_NAME "Medium"
SLANT "R"
SETWIDTH_NAME "Normal"
ADD_STYLE_NAME ""
PIXEL_SIZE 9
POINT_SIZE 90
RESOLUTION_X 75
RESOLUTION_Y 75
SPACING "P"
AVERAGE_WIDTH 54
CHARSET_REGISTRY "MacRoman"
CHARSET_ENCODING "1"
FONT_ASCENT 10
FONT_DESCENT 2
FACE_NAME "Geneva"
ENDPROPERTIES
CHARS 229
STARTCHAR eth
ENCODING 2
SWIDTH 500 0
DWIDTH 0 0
BBX 0 0 0 -2
BITMAP
ENDCHAR
STARTCHAR Lslash
ENCODING 3
SWIDTH 500 0
DWIDTH 0 0
BBX 0 0 0 -2
BITMAP
ENDCHAR
STARTCHAR lslash
ENCODING 4
SWIDTH 500 0
DWIDTH 0 0
BBX 0 0 0 -2
BITMAP
ENDCHAR
STARTCHAR Scaron
ENCODING 5
SWIDTH 500 0
DWIDTH 0 0
BBX 0 0 0 -2
BITMAP
ENDCHAR
STARTCHAR minus
ENCODING 28
SWIDTH 500 0
DWIDTH 7 0
BBX 0 0 7 -2
BITMAP
ENDCHAR
STARTCHAR space
ENCODING 32
SWIDTH 333 0
DWIDTH 3 0
BBX 0 0 3 -2
BITMAP
ENDCHAR
STARTCHAR exclam
ENCODING 33
SWIDTH 303 0
DWIDTH 3 0
BBX 1 7 1 0
BITMAP
80
80
80
80
80
00
80
ENDCHAR
STARTCHAR quotedbl
ENCODING 34
SWIDTH 500 0
DWIDTH 5 0
BBX 3 2 1 5
BITMAP
A0
A0
ENDCHAR
STARTCHAR numbersign
ENCODING 35
SWIDTH 667 0
DWIDTH 7 0
BBX 5 5 1 3
BITMAP
28
F8
50
F8
A0
ENDCHAR
STARTCHAR dollar
ENCODING 36
SWIDTH 667 0
DWIDTH 6 0
BBX 5 9 0 -1
BITMAP
20
70
A8
A0
70
28
A8
70
20
ENDCHAR
STARTCHAR percent
ENCODING 37
SWIDTH 905 0
DWIDTH 9 0
BBX 8 7 0 0
BITMAP
7F
92
94
6E
19
29
46
ENDCHAR
STARTCHAR ampersand
ENCODING 38
SWIDTH 727 0
DWIDTH 8 0
BBX 7 8 0 0
BITMAP
30
48
50
20
54
88
94
62
ENDCHAR
STARTCHAR quotesingle
ENCODING 39
SWIDTH 303 0
DWIDTH 3 0
BBX 1 2 1 5
BITMAP
80
80
ENDCHAR
STARTCHAR parenleft
ENCODING 40
SWIDTH 447 0
DWIDTH 4 0
BBX 3 9 0 -1
BITMAP
20
40
80
80
80
80
80
40
20
ENDCHAR
STARTCHAR parenright
ENCODING 41
SWIDTH 447 0
DWIDTH 4 0
BBX 3 9 0 -1
BITMAP
80
40
20
20
20
20
20
40
80
ENDCHAR
STARTCHAR asterisk
ENCODING 42
SWIDTH 508 0
DWIDTH 7 0
BBX 5 5 1 2
BITMAP
20
A8
70
50
88
ENDCHAR
STARTCHAR plus
ENCODING 43
SWIDTH 667 0
DWIDTH 6 0
BBX 5 5 0 1
BITMAP
20
20
F8
20
20
ENDCHAR
STARTCHAR comma
ENCODING 44
SWIDTH 303 0
DWIDTH 4 0
BBX 2 3 1 -2
BITMAP
40
40
80
ENDCHAR
STARTCHAR hyphen
ENCODING 45
SWIDTH 379 0
DWIDTH 5 0
BBX 4 1 0 3
BITMAP
F0
ENDCHAR
STARTCHAR period
ENCODING 46
SWIDTH 303 0
DWIDTH 3 0
BBX 1 1 1 0
BITMAP
80
ENDCHAR
STARTCHAR slash
ENCODING 47
SWIDTH 538 0
DWIDTH 6 0
BBX 4 8 1 0
BITMAP
10
10
20
20
40
40
80
80
ENDCHAR
STARTCHAR zero
ENCODING 48
SWIDTH 667 0
DWIDTH 6 0
BBX 5 7 0 0
BITMAP
70
88
88
88
88
88
70
ENDCHAR
STARTCHAR one
ENCODING 49
SWIDTH 667 0
DWIDTH 6 0
BBX 2 7 1 0
BITMAP
40
C0
40
40
40
40
40
ENDCHAR
STARTCHAR two
ENCODING 50
SWIDTH 667 0
DWIDTH 6 0
BBX 5 7 0 0
BITMAP
70
88
08
10
20
40
F8
ENDCHAR
STARTCHAR three
ENCODING 51
SWIDTH 667 0
DWIDTH 6 0
BBX 5 7 0 0
BITMAP
F8
10
20
70
08
88
70
ENDCHAR
STARTCHAR four
ENCODING 52
SWIDTH 667 0
DWIDTH 6 0
BBX 5 7 0 0
BITMAP
10
30
50
90
F8
10
10
ENDCHAR
STARTCHAR five
ENCODING 53
SWIDTH 667 0
DWIDTH 6 0
BBX 5 7 0 0
BITMAP
F8
80
F0
08
08
88
70
ENDCHAR
STARTCHAR six
ENCODING 54
SWIDTH 667 0
DWIDTH 6 0
BBX 5 7 0 0
BITMAP
30
40
80
F0
88
88
70
ENDCHAR
STARTCHAR seven
ENCODING 55
SWIDTH 667 0
DWIDTH 6 0
BBX 5 7 0 0
BITMAP
F8
08
10
10
20
20
20
ENDCHAR
STARTCHAR eight
ENCODING 56
SWIDTH 667 0
DWIDTH 6 0
BBX 5 7 0 0
BITMAP
70
88
88
70
88
88
70
ENDCHAR
STARTCHAR nine
ENCODING 57
SWIDTH 667 0
DWIDTH 6 0
BBX 5 7 0 0
BITMAP
70
88
88
78
08
10
60
ENDCHAR
STARTCHAR colon
ENCODING 58
SWIDTH 303 0
DWIDTH 4 0
BBX 1 5 2 0
BITMAP
80
00
00
00
80
ENDCHAR
STARTCHAR semicolon
ENCODING 59
SWIDTH 303 0
DWIDTH 4 0
BBX 2 7 1 -2
BITMAP
40
00
00
00
40
40
80
ENDCHAR
STARTCHAR less
ENCODING 60
SWIDTH 667 0
DWIDTH 5 0
BBX 3 5 1 1
BITMAP
20
40
80
40
20
ENDCHAR
STARTCHAR equal
ENCODING 61
SWIDTH 667 0
DWIDTH 6 0
BBX 5 3 0 2
BITMAP
F8
00
F8
ENDCHAR
STARTCHAR greater
ENCODING 62
SWIDTH 667 0
DWIDTH 5 0
BBX 3 5 1 1
BITMAP
80
40
20
40
80
ENDCHAR
STARTCHAR question
ENCODING 63
SWIDTH 568 0
DWIDTH 6 0
BBX 4 7 1 0
BITMAP
60
90
10
20
40
00
40
ENDCHAR
STARTCHAR at
ENCODING 64
SWIDTH 871 0
DWIDTH 8 0
BBX 7 8 0 -1
BITMAP
38
44
9A
AA
AA
9C
40
38
ENDCHAR
STARTCHAR A
ENCODING 65
SWIDTH 727 0
DWIDTH 7 0
BBX 5 7 1 0
BITMAP
20
20
50
50
F8
88
88
ENDCHAR
STARTCHAR B
ENCODING 66
SWIDTH 636 0
DWIDTH 6 0
BBX 5 7 0 0
BITMAP
F0
88
88
F0
88
88
F0
ENDCHAR
STARTCHAR C
ENCODING 67
SWIDTH 651 0
DWIDTH 6 0
BBX 5 7 0 0
BITMAP
70
88
80
80
80
88
70
ENDCHAR
STARTCHAR D
ENCODING 68
SWIDTH 701 0
DWIDTH 6 0
BBX 5 7 0 0
BITMAP
E0
90
88
88
88
90
E0
ENDCHAR
STARTCHAR E
ENCODING 69
SWIDTH 576 0
DWIDTH 5 0
BBX 4 7 0 0
BITMAP
F0
80
80
E0
80
80
F0
ENDCHAR
STARTCHAR F
ENCODING 70
SWIDTH 553 0
DWIDTH 5 0
BBX 4 7 0 0
BITMAP
F0
80
80
E0
80
80
80
ENDCHAR
STARTCHAR G
ENCODING 71
SWIDTH 674 0
DWIDTH 6 0
BBX 5 7 0 0
BITMAP
70
88
80
98
88
88
70
ENDCHAR
STARTCHAR H
ENCODING 72
SWIDTH 689 0
DWIDTH 6 0
BBX 5 7 0 0
BITMAP
88
88
88
F8
88
88
88
ENDCHAR
STARTCHAR I
ENCODING 73
SWIDTH 242 0
DWIDTH 3 0
BBX 1 7 1 0
BITMAP
80
80
80
80
80
80
80
ENDCHAR
STARTCHAR J
ENCODING 74
SWIDTH 492 0
DWIDTH 6 0
BBX 5 7 0 0
BITMAP
08
08
08
08
88
88
70
ENDCHAR
STARTCHAR K
ENCODING 75
SWIDTH 663 0
DWIDTH 6 0
BBX 5 7 0 0
BITMAP
88
90
A0
C0
A0
90
88
ENDCHAR
STARTCHAR L
ENCODING 76
SWIDTH 583 0
DWIDTH 5 0
BBX 4 7 0 0
BITMAP
80
80
80
80
80
80
F0
ENDCHAR
STARTCHAR M
ENCODING 77
SWIDTH 788 0
DWIDTH 8 0
BBX 7 7 0 0
BITMAP
82
C6
AA
92
82
82
82
ENDCHAR
STARTCHAR N
ENCODING 78
SWIDTH 708 0
DWIDTH 6 0
BBX 5 7 0 0
BITMAP
C8
C8
A8
A8
98
98
88
ENDCHAR
STARTCHAR O
ENCODING 79
SWIDTH 735 0
DWIDTH 6 0
BBX 5 7 0 0
BITMAP
70
88
88
88
88
88
70
ENDCHAR
STARTCHAR P
ENCODING 80
SWIDTH 583 0
DWIDTH 6 0
BBX 5 7 0 0
BITMAP
F0
88
88
F0
80
80
80
ENDCHAR
STARTCHAR Q
ENCODING 81
SWIDTH 735 0
DWIDTH 6 0
BBX 5 8 0 -1
BITMAP
70
88
88
88
88
A8
70
10
ENDCHAR
STARTCHAR R
ENCODING 82
SWIDTH 606 0
DWIDTH 6 0
BBX 5 7 0 0
BITMAP
F0
88
88
F0
A0
90
88
ENDCHAR
STARTCHAR S
ENCODING 83
SWIDTH 606 0
DWIDTH 6 0
BBX 5 7 0 0
BITMAP
70
88
80
70
08
88
70
ENDCHAR
STARTCHAR T
ENCODING 84
SWIDTH 640 0
DWIDTH 6 0
BBX 5 7 0 0
BITMAP
F8
20
20
20
20
20
20
ENDCHAR
STARTCHAR U
ENCODING 85
SWIDTH 667 0
DWIDTH 6 0
BBX 5 7 0 0
BITMAP
88
88
88
88
88
88
70
ENDCHAR
STARTCHAR V
ENCODING 86
SWIDTH 727 0
DWIDTH 6 0
BBX 5 7 0 0
BITMAP
88
88
88
50
50
20
20
ENDCHAR
STARTCHAR W
ENCODING 87
SWIDTH 947 0
DWIDTH 8 0
BBX 7 7 0 0
BITMAP
82
82
54
54
28
28
28
ENDCHAR
STARTCHAR X
ENCODING 88
SWIDTH 610 0
DWIDTH 6 0
BBX 5 7 0 0
BITMAP
88
88
50
20
50
88
88
ENDCHAR
STARTCHAR Y
ENCODING 89
SWIDTH 610 0
DWIDTH 6 0
BBX 5 7 0 0
BITMAP
88
88
50
20
20
20
20
ENDCHAR
STARTCHAR Z
ENCODING 90
SWIDTH 576 0
DWIDTH 5 0
BBX 4 7 0 0
BITMAP
F0
10
20
40
80
80
F0
ENDCHAR
STARTCHAR bracketleft
ENCODING 91
SWIDTH 447 0
DWIDTH 4 0
BBX 2 9 1 -1
BITMAP
C0
80
80
80
80
80
80
80
C0
ENDCHAR
STARTCHAR backslash
ENCODING 92
SWIDTH 538 0
DWIDTH 6 0
BBX 4 8 1 0
BITMAP
80
80
40
40
20
20
10
10
ENDCHAR
STARTCHAR bracketright
ENCODING 93
SWIDTH 447 0
DWIDTH 4 0
BBX 2 9 1 -1
BITMAP
C0
40
40
40
40
40
40
40
C0
ENDCHAR
STARTCHAR asciicircum
ENCODING 94
SWIDTH 667 0
DWIDTH 4 0
BBX 3 2 0 5
BITMAP
40
A0
ENDCHAR
STARTCHAR underscore
ENCODING 95
SWIDTH 667 0
DWIDTH 6 0
BBX 6 1 0 0
BITMAP
FC
ENDCHAR
STARTCHAR grave
ENCODING 96
SWIDTH 591 0
DWIDTH 3 0
BBX 2 2 0 5
BITMAP
80
40
ENDCHAR
STARTCHAR a
ENCODING 97
SWIDTH 553 0
DWIDTH 5 0
BBX 4 5 0 0
BITMAP
60
10
70
90
70
ENDCHAR
STARTCHAR b
ENCODING 98
SWIDTH 610 0
DWIDTH 5 0
BBX 4 7 0 0
BITMAP
80
80
E0
90
90
90
E0
ENDCHAR
STARTCHAR c
ENCODING 99
SWIDTH 545 0
DWIDTH 5 0
BBX 4 5 0 0
BITMAP
60
90
80
90
60
ENDCHAR
STARTCHAR d
ENCODING 100
SWIDTH 602 0
DWIDTH 5 0
BBX 4 7 0 0
BITMAP
10
10
70
90
90
90
70
ENDCHAR
STARTCHAR e
ENCODING 101
SWIDTH 576 0
DWIDTH 5 0
BBX 4 5 0 0
BITMAP
60
90
F0
80
60
ENDCHAR
STARTCHAR f
ENCODING 102
SWIDTH 390 0
DWIDTH 4 0
BBX 4 7 0 0
BITMAP
30
40
E0
40
40
40
40
ENDCHAR
STARTCHAR g
ENCODING 103
SWIDTH 610 0
DWIDTH 5 0
BBX 4 7 0 -2
BITMAP
70
90
90
90
70
10
60
ENDCHAR
STARTCHAR h
ENCODING 104
SWIDTH 583 0
DWIDTH 5 0
BBX 4 7 0 0
BITMAP
80
80
E0
90
90
90
90
ENDCHAR
STARTCHAR i
ENCODING 105
SWIDTH 235 0
DWIDTH 3 0
BBX 1 7 1 0
BITMAP
80
00
80
80
80
80
80
ENDCHAR
STARTCHAR j
ENCODING 106
SWIDTH 276 0
DWIDTH 4 0
BBX 3 9 0 -2
BITMAP
20
00
20
20
20
20
20
20
C0
ENDCHAR
STARTCHAR k
ENCODING 107
SWIDTH 538 0
DWIDTH 5 0
BBX 4 7 0 0
BITMAP
80
80
90
A0
C0
A0
90
ENDCHAR
STARTCHAR l
ENCODING 108
SWIDTH 235 0
DWIDTH 3 0
BBX 1 7 1 0
BITMAP
80
80
80
80
80
80
80
ENDCHAR
STARTCHAR m
ENCODING 109
SWIDTH 894 0
DWIDTH 8 0
BBX 7 5 0 0
BITMAP
EC
92
92
92
92
ENDCHAR
STARTCHAR n
ENCODING 110
SWIDTH 583 0
DWIDTH 5 0
BBX 4 5 0 0
BITMAP
E0
90
90
90
90
ENDCHAR
STARTCHAR o
ENCODING 111
SWIDTH 606 0
DWIDTH 5 0
BBX 4 5 0 0
BITMAP
60
90
90
90
60
ENDCHAR
STARTCHAR p
ENCODING 112
SWIDTH 602 0
DWIDTH 5 0
BBX 4 7 0 -2
BITMAP
E0
90
90
90
E0
80
80
ENDCHAR
STARTCHAR q
ENCODING 113
SWIDTH 602 0
DWIDTH 5 0
BBX 4 7 0 -2
BITMAP
70
90
90
90
70
10
10
ENDCHAR
STARTCHAR r
ENCODING 114
SWIDTH 386 0
DWIDTH 5 0
BBX 4 5 0 0
BITMAP
B0
C0
80
80
80
ENDCHAR
STARTCHAR s
ENCODING 115
SWIDTH 509 0
DWIDTH 5 0
BBX 4 5 0 0
BITMAP
70
80
60
10
E0
ENDCHAR
STARTCHAR t
ENCODING 116
SWIDTH 443 0
DWIDTH 4 0
BBX 3 7 0 0
BITMAP
40
40
E0
40
40
40
20
ENDCHAR
STARTCHAR u
ENCODING 117
SWIDTH 583 0
DWIDTH 5 0
BBX 4 5 0 0
BITMAP
90
90
90
90
70
ENDCHAR
STARTCHAR v
ENCODING 118
SWIDTH 564 0
DWIDTH 6 0
BBX 5 5 0 0
BITMAP
88
50
50
20
20
ENDCHAR
STARTCHAR w
ENCODING 119
SWIDTH 780 0
DWIDTH 8 0
BBX 7 5 0 0
BITMAP
82
54
54
28
28
ENDCHAR
STARTCHAR x
ENCODING 120
SWIDTH 530 0
DWIDTH 6 0
BBX 5 5 0 0
BITMAP
88
50
20
50
88
ENDCHAR
STARTCHAR y
ENCODING 121
SWIDTH 572 0
DWIDTH 6 0
BBX 5 7 0 -2
BITMAP
88
88
50
50
20
20
C0
ENDCHAR
STARTCHAR z
ENCODING 122
SWIDTH 553 0
DWIDTH 5 0
BBX 4 5 0 0
BITMAP
F0
20
40
80
F0
ENDCHAR
STARTCHAR braceleft
ENCODING 123
SWIDTH 451 0
DWIDTH 4 0
BBX 3 9 0 -1
BITMAP
20
40
40
40
80
40
40
40
20
ENDCHAR
STARTCHAR bar
ENCODING 124
SWIDTH 246 0
DWIDTH 2 0
BBX 1 9 0 -1
BITMAP
80
80
80
80
80
80
80
80
80
ENDCHAR
STARTCHAR braceright
ENCODING 125
SWIDTH 451 0
DWIDTH 4 0
BBX 3 9 0 -1
BITMAP
80
40
40
40
20
40
40
40
80
ENDCHAR
STARTCHAR asciitilde
ENCODING 126
SWIDTH 667 0
DWIDTH 6 0
BBX 5 2 0 5
BITMAP
68
B0
ENDCHAR
STARTCHAR char007f
ENCODING 127
SWIDTH 500 0
DWIDTH 0 0
BBX 0 0 0 -2
BITMAP
ENDCHAR
STARTCHAR Adieresis
ENCODING 128
SWIDTH 727 0
DWIDTH 7 0
BBX 5 9 1 0
BITMAP
50
00
20
20
50
50
F8
88
88
ENDCHAR
STARTCHAR Aring
ENCODING 129
SWIDTH 727 0
DWIDTH 7 0
BBX 5 10 1 0
BITMAP
70
88
70
20
20
50
50
F8
88
88
ENDCHAR
STARTCHAR Ccedilla
ENCODING 130
SWIDTH 651 0
DWIDTH 6 0
BBX 5 9 0 -2
BITMAP
70
88
80
80
80
88
70
20
40
ENDCHAR
STARTCHAR Eacute
ENCODING 131
SWIDTH 576 0
DWIDTH 5 0
BBX 4 10 0 0
BITMAP
20
40
00
F0
80
80
E0
80
80
F0
ENDCHAR
STARTCHAR Ntilde
ENCODING 132
SWIDTH 708 0
DWIDTH 6 0
BBX 5 10 0 0
BITMAP
68
B0
00
C8
C8
A8
A8
98
98
88
ENDCHAR
STARTCHAR Odieresis
ENCODING 133
SWIDTH 735 0
DWIDTH 6 0
BBX 5 9 0 0
BITMAP
50
00
70
88
88
88
88
88
70
ENDCHAR
STARTCHAR Udieresis
ENCODING 134
SWIDTH 667 0
DWIDTH 6 0
BBX 5 9 0 0
BITMAP
50
00
88
88
88
88
88
88
70
ENDCHAR
STARTCHAR aacute
ENCODING 135
SWIDTH 553 0
DWIDTH 5 0
BBX 4 8 0 0
BITMAP
20
40
00
60
90
70
90
70
ENDCHAR
STARTCHAR agrave
ENCODING 136
SWIDTH 553 0
DWIDTH 5 0
BBX 4 8 0 0
BITMAP
40
20
00
60
90
70
90
70
ENDCHAR
STARTCHAR acircumflex
ENCODING 137
SWIDTH 553 0
DWIDTH 5 0
BBX 4 8 0 0
BITMAP
20
50
00
60
90
70
90
70
ENDCHAR
STARTCHAR adieresis
ENCODING 138
SWIDTH 553 0
DWIDTH 5 0
BBX 4 7 0 0
BITMAP
50
00
60
90
70
90
70
ENDCHAR
STARTCHAR atilde
ENCODING 139
SWIDTH 553 0
DWIDTH 5 0
BBX 4 8 0 0
BITMAP
50
A0
00
60
90
70
90
70
ENDCHAR
STARTCHAR aring
ENCODING 140
SWIDTH 553 0
DWIDTH 5 0
BBX 4 9 0 0
BITMAP
60
90
60
00
60
90
70
90
70
ENDCHAR
STARTCHAR ccedilla
ENCODING 141
SWIDTH 545 0
DWIDTH 5 0
BBX 4 7 0 -2
BITMAP
60
90
80
90
60
20
40
ENDCHAR
STARTCHAR eacute
ENCODING 142
SWIDTH 576 0
DWIDTH 5 0
BBX 4 8 0 0
BITMAP
20
40
00
60
90
F0
80
70
ENDCHAR
STARTCHAR egrave
ENCODING 143
SWIDTH 576 0
DWIDTH 5 0
BBX 4 8 0 0
BITMAP
40
20
00
60
90
F0
80
60
ENDCHAR
STARTCHAR ecircumflex
ENCODING 144
SWIDTH 576 0
DWIDTH 5 0
BBX 4 8 0 0
BITMAP
40
A0
00
60
90
F0
80
60
ENDCHAR
STARTCHAR edieresis
ENCODING 145
SWIDTH 576 0
DWIDTH 5 0
BBX 4 7 0 0
BITMAP
90
00
60
90
F0
80
70
ENDCHAR
STARTCHAR iacute
ENCODING 146
SWIDTH 235 0
DWIDTH 3 0
BBX 2 8 1 0
BITMAP
40
80
00
80
80
80
80
80
ENDCHAR
STARTCHAR igrave
ENCODING 147
SWIDTH 235 0
DWIDTH 3 0
BBX 2 8 0 0
BITMAP
80
40
00
40
40
40
40
40
ENDCHAR
STARTCHAR icircumflex
ENCODING 148
SWIDTH 235 0
DWIDTH 4 0
BBX 3 8 0 0
BITMAP
40
A0
00
40
40
40
40
40
ENDCHAR
STARTCHAR idieresis
ENCODING 149
SWIDTH 235 0
DWIDTH 4 0
BBX 3 7 0 0
BITMAP
A0
00
40
40
40
40
40
ENDCHAR
STARTCHAR ntilde
ENCODING 150
SWIDTH 583 0
DWIDTH 5 0
BBX 4 8 0 0
BITMAP
50
A0
00
E0
90
90
90
90
ENDCHAR
STARTCHAR oacute
ENCODING 151
SWIDTH 606 0
DWIDTH 5 0
BBX 4 8 0 0
BITMAP
20
40
00
60
90
90
90
60
ENDCHAR
STARTCHAR ograve
ENCODING 152
SWIDTH 606 0
DWIDTH 5 0
BBX 4 8 0 0
BITMAP
40
20
00
60
90
90
90
60
ENDCHAR
STARTCHAR ocircumflex
ENCODING 153
SWIDTH 606 0
DWIDTH 5 0
BBX 4 8 0 0
BITMAP
40
A0
00
60
90
90
90
60
ENDCHAR
STARTCHAR odieresis
ENCODING 154
SWIDTH 606 0
DWIDTH 5 0
BBX 4 7 0 0
BITMAP
90
00
60
90
90
90
60
ENDCHAR
STARTCHAR otilde
ENCODING 155
SWIDTH 606 0
DWIDTH 5 0
BBX 4 8 0 0
BITMAP
50
A0
00
60
90
90
90
60
ENDCHAR
STARTCHAR uacute
ENCODING 156
SWIDTH 583 0
DWIDTH 5 0
BBX 4 8 0 0
BITMAP
20
40
00
90
90
90
90
70
ENDCHAR
STARTCHAR ugrave
ENCODING 157
SWIDTH 583 0
DWIDTH 5 0
BBX 4 8 0 0
BITMAP
40
20
00
90
90
90
90
70
ENDCHAR
STARTCHAR ucircumflex
ENCODING 158
SWIDTH 583 0
DWIDTH 5 0
BBX 4 8 0 0
BITMAP
40
A0
00
90
90
90
90
70
ENDCHAR
STARTCHAR udieresis
ENCODING 159
SWIDTH 583 0
DWIDTH 5 0
BBX 4 7 0 0
BITMAP
90
00
90
90
90
90
70
ENDCHAR
STARTCHAR dagger
ENCODING 160
SWIDTH 667 0
DWIDTH 4 0
BBX 3 5 0 3
BITMAP
40
E0
40
40
40
ENDCHAR
STARTCHAR degree
ENCODING 161
SWIDTH 341 0
DWIDTH 5 0
BBX 4 4 0 4
BITMAP
60
90
90
60
ENDCHAR
STARTCHAR cent
ENCODING 162
SWIDTH 667 0
DWIDTH 6 0
BBX 5 7 0 0
BITMAP
20
70
A8
A0
A8
70
20
ENDCHAR
STARTCHAR sterling
ENCODING 163
SWIDTH 667 0
DWIDTH 6 0
BBX 5 7 0 0
BITMAP
30
40
40
E0
40
48
F0
ENDCHAR
STARTCHAR section
ENCODING 164
SWIDTH 667 0
DWIDTH 6 0
BBX 5 9 0 -1
BITMAP
70
88
80
70
88
70
08
88
70
ENDCHAR
STARTCHAR bullet
ENCODING 165
SWIDTH 667 0
DWIDTH 6 0
BBX 5 5 0 1
BITMAP
70
F8
F8
F8
70
ENDCHAR
STARTCHAR paragraph
ENCODING 166
SWIDTH 667 0
DWIDTH 6 0
BBX 6 9 0 -2
BITMAP
7C
E8
E8
68
28
28
28
28
28
ENDCHAR
STARTCHAR germandbls
ENCODING 167
SWIDTH 591 0
DWIDTH 6 0
BBX 5 7 0 0
BITMAP
60
90
A0
A0
90
88
B0
ENDCHAR
STARTCHAR registered
ENCODING 168
SWIDTH 879 0
DWIDTH 9 0
BBX 8 8 0 0
BITMAP
3C
42
B9
A5
B9
A5
42
3C
ENDCHAR
STARTCHAR copyright
ENCODING 169
SWIDTH 879 0
DWIDTH 9 0
BBX 8 8 0 0
BITMAP
3C
42
99
A1
A1
99
42
3C
ENDCHAR
STARTCHAR trademark
ENCODING 170
SWIDTH 758 0
DWIDTH 9 0
BBX 8 4 0 3
BITMAP
F1
5B
55
51
ENDCHAR
STARTCHAR acute
ENCODING 171
SWIDTH 591 0
DWIDTH 4 0
BBX 2 2 1 5
BITMAP
40
80
ENDCHAR
STARTCHAR dieresis
ENCODING 172
SWIDTH 591 0
DWIDTH 4 0
BBX 3 1 0 6
BITMAP
A0
ENDCHAR
STARTCHAR notequal
ENCODING 173
SWIDTH 667 0
DWIDTH 6 0
BBX 5 5 0 1
BITMAP
10
F8
20
F8
40
ENDCHAR
STARTCHAR AE
ENCODING 174
SWIDTH 992 0
DWIDTH 9 0
BBX 8 7 0 0
BITMAP
1F
28
28
7E
48
88
8F
ENDCHAR
STARTCHAR Oslash
ENCODING 175
SWIDTH 735 0
DWIDTH 7 0
BBX 7 7 0 0
BITMAP
3A
44
4C
54
64
44
B8
ENDCHAR
STARTCHAR infinity
ENCODING 176
SWIDTH 667 0
DWIDTH 10 0
BBX 9 5 0 1
BITMAP
6300
9480
8880
9480
6300
ENDCHAR
STARTCHAR plusminus
ENCODING 177
SWIDTH 667 0
DWIDTH 6 0
BBX 5 6 0 0
BITMAP
20
20
F8
20
20
F8
ENDCHAR
STARTCHAR lessequal
ENCODING 178
SWIDTH 667 0
DWIDTH 5 0
BBX 4 6 0 0
BITMAP
20
40
80
40
20
F0
ENDCHAR
STARTCHAR greaterequal
ENCODING 179
SWIDTH 667 0
DWIDTH 5 0
BBX 4 6 0 0
BITMAP
40
20
10
20
40
F0
ENDCHAR
STARTCHAR yen
ENCODING 180
SWIDTH 667 0
DWIDTH 6 0
BBX 5 7 0 0
BITMAP
88
50
F8
20
F8
20
20
ENDCHAR
STARTCHAR mu
ENCODING 181
SWIDTH 591 0
DWIDTH 6 0
BBX 6 7 0 -2
BITMAP
24
24
48
48
74
80
80
ENDCHAR
STARTCHAR partialdiff
ENCODING 182
SWIDTH 651 0
DWIDTH 5 0
BBX 4 7 0 0
BITMAP
C0
20
50
90
90
90
60
ENDCHAR
STARTCHAR summation
ENCODING 183
SWIDTH 606 0
DWIDTH 6 0
BBX 5 7 0 0
BITMAP
F8
48
20
10
20
48
F8
ENDCHAR
STARTCHAR product
ENCODING 184
SWIDTH 803 0
DWIDTH 7 0
BBX 6 7 0 0
BITMAP
FC
48
48
48
48
48
48
ENDCHAR
STARTCHAR pi
ENCODING 185
SWIDTH 689 0
DWIDTH 8 0
BBX 6 5 1 0
BITMAP
FC
48
48
48
48
ENDCHAR
STARTCHAR integral
ENCODING 186
SWIDTH 523 0
DWIDTH 5 0
BBX 3 11 1 -2
BITMAP
20
40
40
40
40
40
40
40
40
40
80
ENDCHAR
STARTCHAR ordfeminine
ENCODING 187
SWIDTH 333 0
DWIDTH 5 0
BBX 3 5 1 3
BITMAP
40
A0
60
A0
60
ENDCHAR
STARTCHAR ordmasculine
ENCODING 188
SWIDTH 371 0
DWIDTH 5 0
BBX 4 4 0 3
BITMAP
60
90
90
60
ENDCHAR
STARTCHAR Omega
ENCODING 189
SWIDTH 803 0
DWIDTH 8 0
BBX 7 7 0 0
BITMAP
38
44
82
82
82
44
C6
ENDCHAR
STARTCHAR ae
ENCODING 190
SWIDTH 928 0
DWIDTH 9 0
BBX 7 5 1 0
BITMAP
6C
12
7E
90
6C
ENDCHAR
STARTCHAR oslash
ENCODING 191
SWIDTH 606 0
DWIDTH 6 0
BBX 6 6 0 0
BITMAP
34
48
58
68
48
B0
ENDCHAR
STARTCHAR questiondown
ENCODING 192
SWIDTH 568 0
DWIDTH 6 0
BBX 4 7 1 0
BITMAP
20
00
20
40
80
90
60
ENDCHAR
STARTCHAR exclamdown
ENCODING 193
SWIDTH 303 0
DWIDTH 3 0
BBX 1 7 1 0
BITMAP
80
00
80
80
80
80
80
ENDCHAR
STARTCHAR logicalnot
ENCODING 194
SWIDTH 667 0
DWIDTH 5 0
BBX 4 3 0 1
BITMAP
F0
10
10
ENDCHAR
STARTCHAR radical
ENCODING 195
SWIDTH 898 0
DWIDTH 8 0
BBX 7 8 0 0
BITMAP
06
04
08
08
D0
50
20
20
ENDCHAR
STARTCHAR florin
ENCODING 196
SWIDTH 667 0
DWIDTH 5 0
BBX 3 11 1 -2
BITMAP
20
40
40
40
E0
40
40
40
40
40
80
ENDCHAR
STARTCHAR approxequal
ENCODING 197
SWIDTH 667 0
DWIDTH 6 0
BBX 6 4 0 1
BITMAP
64
98
64
98
ENDCHAR
STARTCHAR Delta
ENCODING 198
SWIDTH 758 0
DWIDTH 7 0
BBX 5 6 1 0
BITMAP
20
20
50
50
88
F8
ENDCHAR
STARTCHAR guillemotleft
ENCODING 199
SWIDTH 534 0
DWIDTH 8 0
BBX 6 5 0 0
BITMAP
24
48
90
48
24
ENDCHAR
STARTCHAR guillemotright
ENCODING 200
SWIDTH 534 0
DWIDTH 8 0
BBX 6 5 1 0
BITMAP
90
48
24
48
90
ENDCHAR
STARTCHAR ellipsis
ENCODING 201
SWIDTH 1030 0
DWIDTH 8 0
BBX 7 1 0 0
BITMAP
92
ENDCHAR
STARTCHAR nbspace
ENCODING 202
SWIDTH 667 0
DWIDTH 6 0
BBX 0 0 6 -2
BITMAP
ENDCHAR
STARTCHAR Agrave
ENCODING 203
SWIDTH 727 0
DWIDTH 7 0
BBX 5 10 1 0
BITMAP
40
20
00
20
20
50
50
F8
88
88
ENDCHAR
STARTCHAR Atilde
ENCODING 204
SWIDTH 727 0
DWIDTH 7 0
BBX 5 10 1 0
BITMAP
68
B0
00
20
20
50
50
F8
88
88
ENDCHAR
STARTCHAR Otilde
ENCODING 205
SWIDTH 735 0
DWIDTH 6 0
BBX 5 10 0 0
BITMAP
68
B0
00
70
88
88
88
88
88
70
ENDCHAR
STARTCHAR OE
ENCODING 206
SWIDTH 1091 0
DWIDTH 9 0
BBX 8 7 0 0
BITMAP
7F
88
88
8E
88
88
7F
ENDCHAR
STARTCHAR oe
ENCODING 207
SWIDTH 996 0
DWIDTH 8 0
BBX 7 5 0 0
BITMAP
6C
92
9E
90
7C
ENDCHAR
STARTCHAR endash
ENCODING 208
SWIDTH 515 0
DWIDTH 5 0
BBX 4 1 0 2
BITMAP
F0
ENDCHAR
STARTCHAR emdash
ENCODING 209
SWIDTH 1030 0
DWIDTH 7 0
BBX 6 1 0 2
BITMAP
FC
ENDCHAR
STARTCHAR quotedblleft
ENCODING 210
SWIDTH 492 0
DWIDTH 7 0
BBX 4 3 1 5
BITMAP
50
A0
A0
ENDCHAR
STARTCHAR quotedblright
ENCODING 211
SWIDTH 492 0
DWIDTH 7 0
BBX 4 3 2 5
BITMAP
50
50
A0
ENDCHAR
STARTCHAR quoteleft
ENCODING 212
SWIDTH 303 0
DWIDTH 4 0
BBX 2 3 1 5
BITMAP
40
80
80
ENDCHAR
STARTCHAR quoteright
ENCODING 213
SWIDTH 303 0
DWIDTH 4 0
BBX 2 3 1 5
BITMAP
40
40
80
ENDCHAR
STARTCHAR divide
ENCODING 214
SWIDTH 667 0
DWIDTH 6 0
BBX 5 5 0 1
BITMAP
20
00
F8
00
20
ENDCHAR
STARTCHAR lozenge
ENCODING 215
SWIDTH 667 0
DWIDTH 8 0
BBX 7 7 0 0
BITMAP
10
28
44
82
44
28
10
ENDCHAR
STARTCHAR ydieresis
ENCODING 216
SWIDTH 572 0
DWIDTH 6 0
BBX 5 9 0 -2
BITMAP
50
00
88
88
50
50
20
20
C0
ENDCHAR
STARTCHAR Ydieresis
ENCODING 217
SWIDTH 610 0
DWIDTH 6 0
BBX 5 9 0 0
BITMAP
50
00
88
88
50
20
20
20
20
ENDCHAR
STARTCHAR fraction
ENCODING 218
SWIDTH 102 0
DWIDTH 2 0
BBX 6 7 -2 0
BITMAP
04
08
10
20
20
40
80
ENDCHAR
STARTCHAR currency
ENCODING 219
SWIDTH 744 0
DWIDTH 7 0
BBX 6 7 0 1
BITMAP
38
44
F0
40
F0
44
38
ENDCHAR
STARTCHAR guilsinglleft
ENCODING 220
SWIDTH 322 0
DWIDTH 5 0
BBX 3 5 1 1
BITMAP
20
40
80
40
20
ENDCHAR
STARTCHAR guilsinglright
ENCODING 221
SWIDTH 322 0
DWIDTH 5 0
BBX 3 5 1 1
BITMAP
80
40
20
40
80
ENDCHAR
STARTCHAR fi
ENCODING 222
SWIDTH 599 0
DWIDTH 6 0
BBX 5 7 0 0
BITMAP
30
40
F8
48
48
48
48
ENDCHAR
STARTCHAR fl
ENCODING 223
SWIDTH 599 0
DWIDTH 6 0
BBX 5 7 0 0
BITMAP
38
48
E8
48
48
48
48
ENDCHAR
STARTCHAR daggerdbl
ENCODING 224
SWIDTH 667 0
DWIDTH 5 0
BBX 3 9 1 -2
BITMAP
40
40
E0
40
40
40
E0
40
40
ENDCHAR
STARTCHAR periodcentered
ENCODING 225
SWIDTH 667 0
DWIDTH 5 0
BBX 1 1 2 2
BITMAP
80
ENDCHAR
STARTCHAR quotesinglbase
ENCODING 226
SWIDTH 303 0
DWIDTH 4 0
BBX 2 3 1 -2
BITMAP
40
40
80
ENDCHAR
STARTCHAR quotedblbase
ENCODING 227
SWIDTH 492 0
DWIDTH 6 0
BBX 4 3 1 -2
BITMAP
50
50
A0
ENDCHAR
STARTCHAR perthousand
ENCODING 228
SWIDTH 1311 0
DWIDTH 12 0
BBX 11 7 0 0
BITMAP
4200
A400
A800
5440
2AA0
4AA0
8440
ENDCHAR
STARTCHAR Acircumflex
ENCODING 229
SWIDTH 727 0
DWIDTH 7 0
BBX 5 10 1 0
BITMAP
20
50
00
20
20
50
50
F8
88
88
ENDCHAR
STARTCHAR Ecircumflex
ENCODING 230
SWIDTH 576 0
DWIDTH 5 0
BBX 4 10 0 0
BITMAP
40
A0
00
F0
80
80
E0
80
80
F0
ENDCHAR
STARTCHAR Aacute
ENCODING 231
SWIDTH 727 0
DWIDTH 7 0
BBX 5 10 1 0
BITMAP
10
20
00
20
20
50
50
F8
88
88
ENDCHAR
STARTCHAR Edieresis
ENCODING 232
SWIDTH 576 0
DWIDTH 5 0
BBX 4 9 0 0
BITMAP
A0
00
F0
80
80
E0
80
80
F0
ENDCHAR
STARTCHAR Egrave
ENCODING 233
SWIDTH 576 0
DWIDTH 5 0
BBX 4 10 0 0
BITMAP
40
20
00
F0
80
80
E0
80
80
F0
ENDCHAR
STARTCHAR Iacute
ENCODING 234
SWIDTH 242 0
DWIDTH 3 0
BBX 2 10 1 0
BITMAP
40
80
00
80
80
80
80
80
80
80
ENDCHAR
STARTCHAR Icircumflex
ENCODING 235
SWIDTH 242 0
DWIDTH 3 0
BBX 3 10 0 0
BITMAP
40
A0
00
40
40
40
40
40
40
40
ENDCHAR
STARTCHAR Idieresis
ENCODING 236
SWIDTH 242 0
DWIDTH 3 0
BBX 3 9 0 0
BITMAP
A0
00
40
40
40
40
40
40
40
ENDCHAR
STARTCHAR Igrave
ENCODING 237
SWIDTH 242 0
DWIDTH 3 0
BBX 2 10 0 0
BITMAP
80
40
00
40
40
40
40
40
40
40
ENDCHAR
STARTCHAR Oacute
ENCODING 238
SWIDTH 735 0
DWIDTH 6 0
BBX 5 10 0 0
BITMAP
10
20
00
70
88
88
88
88
88
70
ENDCHAR
STARTCHAR Ocircumflex
ENCODING 239
SWIDTH 735 0
DWIDTH 6 0
BBX 5 10 0 0
BITMAP
20
50
00
70
88
88
88
88
88
70
ENDCHAR
STARTCHAR apple
ENCODING 240
SWIDTH 790 0
DWIDTH 6 0
BBX 6 7 0 0
BITMAP
18
10
6C
F8
F8
FC
78
ENDCHAR
STARTCHAR Ograve
ENCODING 241
SWIDTH 735 0
DWIDTH 6 0
BBX 5 10 0 0
BITMAP
40
20
00
70
88
88
88
88
88
70
ENDCHAR
STARTCHAR Uacute
ENCODING 242
SWIDTH 667 0
DWIDTH 6 0
BBX 5 10 0 0
BITMAP
10
20
00
88
88
88
88
88
88
70
ENDCHAR
STARTCHAR Ucircumflex
ENCODING 243
SWIDTH 667 0
DWIDTH 6 0
BBX 5 10 0 0
BITMAP
20
50
00
88
88
88
88
88
88
70
ENDCHAR
STARTCHAR Ugrave
ENCODING 244
SWIDTH 667 0
DWIDTH 6 0
BBX 5 10 0 0
BITMAP
40
20
00
88
88
88
88
88
88
70
ENDCHAR
STARTCHAR dotlessi
ENCODING 245
SWIDTH 235 0
DWIDTH 3 0
BBX 1 5 1 0
BITMAP
80
80
80
80
80
ENDCHAR
STARTCHAR circumflex
ENCODING 246
SWIDTH 591 0
DWIDTH 5 0
BBX 3 2 1 6
BITMAP
40
A0
ENDCHAR
STARTCHAR tilde
ENCODING 247
SWIDTH 591 0
DWIDTH 5 0
BBX 4 2 0 6
BITMAP
50
A0
ENDCHAR
STARTCHAR macron
ENCODING 248
SWIDTH 591 0
DWIDTH 5 0
BBX 3 1 1 6
BITMAP
E0
ENDCHAR
STARTCHAR breve
ENCODING 249
SWIDTH 591 0
DWIDTH 5 0
BBX 4 2 0 6
BITMAP
90
60
ENDCHAR
STARTCHAR dotaccent
ENCODING 250
SWIDTH 591 0
DWIDTH 5 0
BBX 1 1 2 6
BITMAP
80
ENDCHAR
STARTCHAR ring
ENCODING 251
SWIDTH 591 0
DWIDTH 5 0
BBX 3 3 1 6
BITMAP
40
A0
40
ENDCHAR
STARTCHAR cedilla
ENCODING 252
SWIDTH 591 0
DWIDTH 5 0
BBX 2 2 1 -2
BITMAP
40
80
ENDCHAR
STARTCHAR hungarumlaut
ENCODING 253
SWIDTH 591 0
DWIDTH 5 0
BBX 4 2 0 6
BITMAP
50
A0
ENDCHAR
STARTCHAR ogonek
ENCODING 254
SWIDTH 591 0
DWIDTH 5 0
BBX 2 2 2 -2
BITMAP
80
40
ENDCHAR
STARTCHAR caron
ENCODING 255
SWIDTH 591 0
DWIDTH 5 0
BBX 3 2 1 6
BITMAP
A0
40
ENDCHAR
ENDFONT
